<?xml version="1.0" encoding="utf-8"?>
<!-- Generator: Adobe Illustrator 16.0.0, SVG Export Plug-In . SVG Version: 6.00 Build 0)  -->
<!DOCTYPE svg PUBLIC "-//W3C//DTD SVG 1.1//EN" "http://www.w3.org/Graphics/SVG/1.1/DTD/svg11.dtd">
<svg version="1.1" id="Capa_1" xmlns="http://www.w3.org/2000/svg" xmlns:xlink="http://www.w3.org/1999/xlink" x="0px" y="0px"
	 width="24px" height="24px" viewBox="0 0 24 24" enable-background="new 0 0 24 24" xml:space="preserve">
<g>
	<path d="M12,0.688c-1.11,0-2,0.89-2,2s0.89,2,2,2s2-0.89,2-2S13.11,0.688,12,0.688z M12.6,3.048
		c-0.361,0.037-0.413-0.235-0.599-0.235H12c-0.001,0-0.001,0-0.001,0c-0.186,0-0.237,0.272-0.599,0.235
		c-0.308-0.031-0.649-0.472-0.649-0.745c0-0.274,0.341-0.321,0.649-0.321c0.298,0,0.454,0.128,0.6,0.137
		c0.146-0.009,0.302-0.137,0.6-0.137c0.309,0,0.649,0.047,0.649,0.321C13.249,2.576,12.907,3.017,12.6,3.048z"/>
	<ellipse cx="12.5" cy="2.44" rx="0.258" ry="0.265"/>
	<ellipse cx="11.501" cy="2.44" rx="0.257" ry="0.265"/>
</g>
<g>
	<polygon points="12.14,7.255 12.304,7.255 12.304,7.657 11.693,7.657 11.693,7.255 11.859,7.255 11.859,7.08 11.322,7.08 
		11.322,7.255 11.481,7.255 11.481,8.308 11.322,8.308 11.322,8.483 11.859,8.483 11.859,8.308 11.693,8.308 11.693,7.833 
		12.304,7.833 12.304,8.308 12.14,8.308 12.14,8.483 12.677,8.483 12.677,8.308 12.517,8.308 12.517,7.255 12.677,7.255 
		12.677,7.08 12.14,7.08 	"/>
	<path d="M12,4.978c-3.754,0-6.797,2.001-6.797,4.47c0,1.677,1.406,3.137,3.484,3.901v-2.174c-0.823-0.445-1.333-1.054-1.333-1.728
		c0-0.752,0.646-1.417,1.646-1.87v3.4v0.731V22h2v-7h2v7h1.979V10.978V7.568c1.011,0.452,1.667,1.122,1.667,1.879
		c0,0.68-0.519,1.295-1.354,1.741v2.169c2.09-0.763,3.506-2.227,3.506-3.91C18.797,6.979,15.753,4.978,12,4.978z M12,9.396
		c-0.892,0-1.614-0.723-1.614-1.615S11.108,6.167,12,6.167s1.614,0.723,1.614,1.614S12.892,9.396,12,9.396z"/>
</g>
</svg>
