<?xml version="1.0" encoding="utf-8"?>
<!-- Generator: Adobe Illustrator 16.0.0, SVG Export Plug-In . SVG Version: 6.00 Build 0)  -->
<!DOCTYPE svg PUBLIC "-//W3C//DTD SVG 1.1//EN" "http://www.w3.org/Graphics/SVG/1.1/DTD/svg11.dtd">
<svg version="1.1" xmlns="http://www.w3.org/2000/svg" xmlns:xlink="http://www.w3.org/1999/xlink" x="0px" y="0px"
	 width="24px" height="24px" viewBox="0 0 24 24" enable-background="new 0 0 24 24" xml:space="preserve">
<path fill="#FFFFFF" d="M9.425,12.68v5.922H6.667V5.398h2.758V10.4h5.149V5.398h2.758v13.204h-2.758V12.68H9.425z"/>
<g>
	<path fill="#FFFFFF" d="M12,2.463c5.259,0,9.537,4.278,9.537,9.537S17.259,21.537,12,21.537S2.463,17.259,2.463,12
		S6.741,2.463,12,2.463 M12,1.463C6.181,1.463,1.463,6.181,1.463,12S6.181,22.537,12,22.537c5.82,0,10.537-4.718,10.537-10.537
		S17.82,1.463,12,1.463L12,1.463z"/>
</g>
</svg>
