<?xml version="1.0" encoding="utf-8"?>
<!-- Generator: Adobe Illustrator 16.0.0, SVG Export Plug-In . SVG Version: 6.00 Build 0)  -->
<!DOCTYPE svg PUBLIC "-//W3C//DTD SVG 1.1//EN" "http://www.w3.org/Graphics/SVG/1.1/DTD/svg11.dtd">
<svg version="1.1" id="Capa_1" xmlns="http://www.w3.org/2000/svg" xmlns:xlink="http://www.w3.org/1999/xlink" x="0px" y="0px"
	 width="24px" height="24px" viewBox="0 0 24 24" enable-background="new 0 0 24 24" xml:space="preserve">
<path d="M23.242,24C20.891,21.542,16.74,19.903,12,19.903c-4.741,0-8.892,1.639-11.242,4.097H23.242z"/>
<g>
	<polygon points="15.281,5.959 16.92,1.401 13.641,3.224 12,1.401 10.36,3.224 7.08,1.401 8.72,5.959 	"/>
	<path d="M19.381,15.987c0,0-0.82-6.382-4.1-8.205H8.72c-3.281,1.823-4.1,8.205-4.1,8.205s-0.82,3.647,4.1,3.647
		c0,0,1.641,0,6.562,0C20.201,19.635,19.381,15.987,19.381,15.987z M10.283,14.081l-2.902-2.497l4.21,1.452L10.283,14.081z
		 M10.55,10.16c0-0.801,0.649-1.451,1.451-1.451c0.801,0,1.45,0.65,1.45,1.451s-0.649,1.451-1.45,1.451
		C11.199,11.611,10.55,10.961,10.55,10.16z M13.715,14.081l-1.309-1.045l4.212-1.452L13.715,14.081z"/>
	<polygon points="12.117,9.72 12.301,9.72 12.016,10.469 11.731,9.72 11.903,9.72 11.903,9.488 11.238,9.488 11.238,9.72 
		11.471,9.72 11.903,10.832 12.139,10.832 12.561,9.72 12.763,9.72 12.763,9.488 12.117,9.488 	"/>
</g>
</svg>
